<?xml version="1.0" encoding="UTF-8" standalone="no"?>
<!DOCTYPE svg PUBLIC "-//W3C//DTD SVG 1.1//EN"
 "http://www.w3.org/Graphics/SVG/1.1/DTD/svg11.dtd">
<!-- Generated by graphviz version 2.40.1 (20161225.0304)
 -->
<!-- Title: components Pages: 1 -->
<svg width="510pt" height="152pt"
 viewBox="0.00 0.00 510.00 152.00" xmlns="http://www.w3.org/2000/svg" xmlns:xlink="http://www.w3.org/1999/xlink">
<g id="graph0" class="graph" transform="scale(1 1) rotate(0) translate(4 148)">
<title>components</title>
<polygon fill="#ffffff" stroke="transparent" points="-4,4 -4,-148 506,-148 506,4 -4,4"/>
<!-- App -->
<g id="node1" class="node">
<title>App</title>
<polygon fill="none" stroke="#000000" points="54,-117 0,-117 0,-81 54,-81 54,-117"/>
<text text-anchor="middle" x="27" y="-95.3" font-family="Times,serif" font-size="14.00" fill="#000000">App</text>
</g>
<!-- Navbar -->
<g id="node2" class="node">
<title>Navbar</title>
<polygon fill="none" stroke="#000000" points="148,-144 90,-144 90,-108 148,-108 148,-144"/>
<text text-anchor="middle" x="119" y="-122.3" font-family="Times,serif" font-size="14.00" fill="#000000">Navbar</text>
</g>
<!-- App&#45;&gt;Navbar -->
<g id="edge1" class="edge">
<title>App&#45;&gt;Navbar</title>
<path fill="none" stroke="#000000" d="M54.1054,-106.9549C62.2696,-109.3509 71.3949,-112.0289 80.1641,-114.6025"/>
<polygon fill="#000000" stroke="#000000" points="79.2623,-117.9854 89.8432,-117.4431 81.2335,-111.2687 79.2623,-117.9854"/>
</g>
<!-- Routes -->
<g id="node3" class="node">
<title>Routes</title>
<polygon fill="none" stroke="#000000" points="146.5,-90 91.5,-90 91.5,-54 146.5,-54 146.5,-90"/>
<text text-anchor="middle" x="119" y="-68.3" font-family="Times,serif" font-size="14.00" fill="#000000">Routes</text>
</g>
<!-- App&#45;&gt;Routes -->
<g id="edge2" class="edge">
<title>App&#45;&gt;Routes</title>
<path fill="none" stroke="#000000" d="M54.1054,-91.0451C62.7466,-88.5091 72.4645,-85.6571 81.6973,-82.9475"/>
<polygon fill="#000000" stroke="#000000" points="82.8418,-86.2593 91.4515,-80.0849 80.8706,-79.5426 82.8418,-86.2593"/>
</g>
<!-- Homepage -->
<g id="node4" class="node">
<title>Homepage</title>
<polygon fill="none" stroke="#000000" points="269,-117 192,-117 192,-81 269,-81 269,-117"/>
<text text-anchor="middle" x="230.5" y="-95.3" font-family="Times,serif" font-size="14.00" fill="#000000">Homepage</text>
</g>
<!-- Routes&#45;&gt;Homepage -->
<g id="edge3" class="edge">
<title>Routes&#45;&gt;Homepage</title>
<path fill="none" stroke="#000000" d="M146.5618,-78.6742C157.2428,-81.2606 169.797,-84.3006 181.8949,-87.2302"/>
<polygon fill="#000000" stroke="#000000" points="181.3558,-90.7007 191.8987,-89.6526 183.0033,-83.8973 181.3558,-90.7007"/>
</g>
<!-- AboutSection -->
<g id="node5" class="node">
<title>AboutSection</title>
<polygon fill="none" stroke="#000000" points="277,-63 184,-63 184,-27 277,-27 277,-63"/>
<text text-anchor="middle" x="230.5" y="-41.3" font-family="Times,serif" font-size="14.00" fill="#000000">AboutSection</text>
</g>
<!-- Routes&#45;&gt;AboutSection -->
<g id="edge4" class="edge">
<title>Routes&#45;&gt;AboutSection</title>
<path fill="none" stroke="#000000" d="M146.5618,-65.3258C154.8899,-63.3092 164.357,-61.0167 173.8585,-58.7159"/>
<polygon fill="#000000" stroke="#000000" points="174.831,-62.0816 183.7263,-56.3264 173.1835,-55.2782 174.831,-62.0816"/>
</g>
<!-- AboutRoutes -->
<g id="node6" class="node">
<title>AboutRoutes</title>
<polygon fill="none" stroke="#000000" points="403,-63 313,-63 313,-27 403,-27 403,-63"/>
<text text-anchor="middle" x="358" y="-41.3" font-family="Times,serif" font-size="14.00" fill="#000000">AboutRoutes</text>
</g>
<!-- AboutSection&#45;&gt;AboutRoutes -->
<g id="edge5" class="edge">
<title>AboutSection&#45;&gt;AboutRoutes</title>
<path fill="none" stroke="#000000" d="M277.2523,-45C285.5388,-45 294.2386,-45 302.7337,-45"/>
<polygon fill="#000000" stroke="#000000" points="302.953,-48.5001 312.953,-45 302.9529,-41.5001 302.953,-48.5001"/>
</g>
<!-- JobsList -->
<g id="node7" class="node">
<title>JobsList</title>
<polygon fill="none" stroke="#000000" points="502,-90 439,-90 439,-54 502,-54 502,-90"/>
<text text-anchor="middle" x="470.5" y="-68.3" font-family="Times,serif" font-size="14.00" fill="#000000">JobsList</text>
</g>
<!-- AboutRoutes&#45;&gt;JobsList -->
<g id="edge6" class="edge">
<title>AboutRoutes&#45;&gt;JobsList</title>
<path fill="none" stroke="#000000" d="M403.1098,-55.8264C411.6279,-57.8707 420.5009,-60.0002 428.9049,-62.0172"/>
<polygon fill="#000000" stroke="#000000" points="428.3271,-65.4778 438.8678,-64.4083 429.9607,-58.6711 428.3271,-65.4778"/>
</g>
<!-- Team -->
<g id="node8" class="node">
<title>Team</title>
<polygon fill="none" stroke="#000000" points="497.5,-36 443.5,-36 443.5,0 497.5,0 497.5,-36"/>
<text text-anchor="middle" x="470.5" y="-14.3" font-family="Times,serif" font-size="14.00" fill="#000000">Team</text>
</g>
<!-- AboutRoutes&#45;&gt;Team -->
<g id="edge7" class="edge">
<title>AboutRoutes&#45;&gt;Team</title>
<path fill="none" stroke="#000000" d="M403.1098,-34.1736C413.1819,-31.7563 423.7504,-29.2199 433.4527,-26.8914"/>
<polygon fill="#000000" stroke="#000000" points="434.2858,-30.2909 443.1929,-24.5537 432.6522,-23.4842 434.2858,-30.2909"/>
</g>
</g>
</svg>
